# xmcd CD database file
#
# Track frame offsets:
#	150
#	14719
#	37144
#	54357
#	70932
#	98708
#	117220
#	130398
#	151136
#	201463
#	219941
#	239286
#	256137
#	274836
#	301536
#	325785
#
# Disc length: 4606 seconds
#
# Revision: 0
# Processed by: cddbd v1.5.2PL0 Copyright (c) Steve Scherf et al.
# Submitted via: CDex 1.79
#
DISCID=de11fc10
DTITLE=Max Stalling - Live At The Granada
DYEAR=2009
DGENRE=Country
TTITLE0=Ping Pong, Pool (live)
TTITLE1=In The Heat Of The Wide Afternoon (live)
TTITLE2=Never Need To Fall In Love Again (live)
TTITLE3=If Only The Good Die Young (live)
TTITLE4=How Blue Can You Go? (live)
TTITLE5=Goodnight Never Ment Goodbye (live)
TTITLE6=Dime Box, TX (live)
TTITLE7=The Pila Song (live)
TTITLE8=The Pila Song Vamp (live)
TTITLE9=6 X 9 Speakers (live)
TTITLE10=Topaz City (live)
TTITLE11=Bass Run (live)
TTITLE12=Running Buddy (live)
TTITLE13=Probably Corsicana (live)
TTITLE14=I-35 (live)
TTITLE15=Crazy Like That (live)
EXTD=YEAR: 2009
EXTT0=
EXTT1=
EXTT2=
EXTT3=
EXTT4=
EXTT5=
EXTT6=
EXTT7=
EXTT8=
EXTT9=
EXTT10=
EXTT11=
EXTT12=
EXTT13=
EXTT14=
EXTT15=
PLAYORDER=
